<?xml version="1.0" encoding="iso-8859-1"?>
<!-- Generator: Adobe Illustrator 19.0.0, SVG Export Plug-In . SVG Version: 6.00 Build 0)  -->
<svg version="1.1" id="Capa_1" xmlns="http://www.w3.org/2000/svg" xmlns:xlink="http://www.w3.org/1999/xlink" x="0px" y="0px"
	 viewBox="0 0 480 480" style="enable-background:new 0 0 480 480;" xml:space="preserve">
<path style="fill:#E6E7E8;" d="M240,8C111.87,8,8,111.87,8,240s103.87,232,232,232s232-103.87,232-232S368.13,8,240,8z M240,168
	L104.232,303.768L240,168l135.768,135.768L240,168z"/>
<g>
	<path style="fill:#414042;" d="M240,480C107.452,480,0,372.548,0,240S107.452,0,240,0s240,107.452,240,240
		C479.85,372.486,372.486,479.85,240,480z M240,16C116.288,16,16,116.288,16,240s100.288,224,224,224s224-100.288,224-224
		C463.859,116.347,363.653,16.141,240,16z"/>
	<path style="fill:#414042;" d="M375.768,311.768c-2.122,0-4.156-0.844-5.656-2.344L240,179.312L109.888,309.424
		c-3.069,3.178-8.134,3.266-11.312,0.196c-3.178-3.07-3.266-8.134-0.196-11.312c0.064-0.067,0.13-0.132,0.196-0.196l135.768-135.768
		c3.124-3.123,8.188-3.123,11.312,0l135.768,135.768c3.124,3.125,3.123,8.19-0.002,11.314
		C379.923,310.925,377.889,311.768,375.768,311.768z"/>
</g>
<g>
</g>
<g>
</g>
<g>
</g>
<g>
</g>
<g>
</g>
<g>
</g>
<g>
</g>
<g>
</g>
<g>
</g>
<g>
</g>
<g>
</g>
<g>
</g>
<g>
</g>
<g>
</g>
<g>
</g>
</svg>
